<svg xmlns="http://www.w3.org/2000/svg" viewBox="0 0 32 32" width="32" height="32" shape-rendering="crispEdges">
  <!-- 13 stripes: alternating red and white -->
  <!-- Each stripe = 32/13 ≈ 2.46px tall -->
  <rect width="32" height="32" fill="#B22234"/>
  <rect y="2.46" width="32" height="2.46" fill="#FFFFFF"/>
  <rect y="4.92" width="32" height="2.46" fill="#B22234"/>
  <rect y="7.38" width="32" height="2.46" fill="#FFFFFF"/>
  <rect y="9.85" width="32" height="2.46" fill="#B22234"/>
  <rect y="12.31" width="32" height="2.46" fill="#FFFFFF"/>
  <rect y="14.77" width="32" height="2.46" fill="#B22234"/>
  <rect y="17.23" width="32" height="2.46" fill="#FFFFFF"/>
  <rect y="19.69" width="32" height="2.46" fill="#B22234"/>
  <rect y="22.15" width="32" height="2.46" fill="#FFFFFF"/>
  <rect y="24.62" width="32" height="2.46" fill="#B22234"/>
  <rect y="27.08" width="32" height="2.46" fill="#FFFFFF"/>
  <!-- Canton (union) blue field: covers top 7 stripes, left ~40% -->
  <rect width="13" height="17.23" fill="#3C3B6E"/>
  <!-- Stars: 5 rows of 6, 4 rows of 5, simplified as small dots -->
  <!-- Row 1 (6 stars) -->
  <circle cx="1.3" cy="1.72" r="0.9" fill="#FFFFFF"/>
  <circle cx="3.5" cy="1.72" r="0.9" fill="#FFFFFF"/>
  <circle cx="5.7" cy="1.72" r="0.9" fill="#FFFFFF"/>
  <circle cx="7.9" cy="1.72" r="0.9" fill="#FFFFFF"/>
  <circle cx="10.1" cy="1.72" r="0.9" fill="#FFFFFF"/>
  <circle cx="12.3" cy="1.72" r="0.9" fill="#FFFFFF"/>
  <!-- Row 2 (5 stars, offset) -->
  <circle cx="2.4" cy="3.44" r="0.9" fill="#FFFFFF"/>
  <circle cx="4.6" cy="3.44" r="0.9" fill="#FFFFFF"/>
  <circle cx="6.8" cy="3.44" r="0.9" fill="#FFFFFF"/>
  <circle cx="9.0" cy="3.44" r="0.9" fill="#FFFFFF"/>
  <circle cx="11.2" cy="3.44" r="0.9" fill="#FFFFFF"/>
  <!-- Row 3 (6 stars) -->
  <circle cx="1.3" cy="5.16" r="0.9" fill="#FFFFFF"/>
  <circle cx="3.5" cy="5.16" r="0.9" fill="#FFFFFF"/>
  <circle cx="5.7" cy="5.16" r="0.9" fill="#FFFFFF"/>
  <circle cx="7.9" cy="5.16" r="0.9" fill="#FFFFFF"/>
  <circle cx="10.1" cy="5.16" r="0.9" fill="#FFFFFF"/>
  <circle cx="12.3" cy="5.16" r="0.9" fill="#FFFFFF"/>
  <!-- Row 4 (5 stars, offset) -->
  <circle cx="2.4" cy="6.88" r="0.9" fill="#FFFFFF"/>
  <circle cx="4.6" cy="6.88" r="0.9" fill="#FFFFFF"/>
  <circle cx="6.8" cy="6.88" r="0.9" fill="#FFFFFF"/>
  <circle cx="9.0" cy="6.88" r="0.9" fill="#FFFFFF"/>
  <circle cx="11.2" cy="6.88" r="0.9" fill="#FFFFFF"/>
  <!-- Row 5 (6 stars) -->
  <circle cx="1.3" cy="8.61" r="0.9" fill="#FFFFFF"/>
  <circle cx="3.5" cy="8.61" r="0.9" fill="#FFFFFF"/>
  <circle cx="5.7" cy="8.61" r="0.9" fill="#FFFFFF"/>
  <circle cx="7.9" cy="8.61" r="0.9" fill="#FFFFFF"/>
  <circle cx="10.1" cy="8.61" r="0.9" fill="#FFFFFF"/>
  <circle cx="12.3" cy="8.61" r="0.9" fill="#FFFFFF"/>
  <!-- Row 6 (5 stars, offset) -->
  <circle cx="2.4" cy="10.33" r="0.9" fill="#FFFFFF"/>
  <circle cx="4.6" cy="10.33" r="0.9" fill="#FFFFFF"/>
  <circle cx="6.8" cy="10.33" r="0.9" fill="#FFFFFF"/>
  <circle cx="9.0" cy="10.33" r="0.9" fill="#FFFFFF"/>
  <circle cx="11.2" cy="10.33" r="0.9" fill="#FFFFFF"/>
  <!-- Row 7 (6 stars) -->
  <circle cx="1.3" cy="12.05" r="0.9" fill="#FFFFFF"/>
  <circle cx="3.5" cy="12.05" r="0.9" fill="#FFFFFF"/>
  <circle cx="5.7" cy="12.05" r="0.9" fill="#FFFFFF"/>
  <circle cx="7.9" cy="12.05" r="0.9" fill="#FFFFFF"/>
  <circle cx="10.1" cy="12.05" r="0.9" fill="#FFFFFF"/>
  <circle cx="12.3" cy="12.05" r="0.9" fill="#FFFFFF"/>
  <!-- Row 8 (5 stars, offset) -->
  <circle cx="2.4" cy="13.77" r="0.9" fill="#FFFFFF"/>
  <circle cx="4.6" cy="13.77" r="0.9" fill="#FFFFFF"/>
  <circle cx="6.8" cy="13.77" r="0.9" fill="#FFFFFF"/>
  <circle cx="9.0" cy="13.77" r="0.9" fill="#FFFFFF"/>
  <circle cx="11.2" cy="13.77" r="0.9" fill="#FFFFFF"/>
  <!-- Row 9 (6 stars) -->
  <circle cx="1.3" cy="15.49" r="0.9" fill="#FFFFFF"/>
  <circle cx="3.5" cy="15.49" r="0.9" fill="#FFFFFF"/>
  <circle cx="5.7" cy="15.49" r="0.9" fill="#FFFFFF"/>
  <circle cx="7.9" cy="15.49" r="0.9" fill="#FFFFFF"/>
  <circle cx="10.1" cy="15.49" r="0.9" fill="#FFFFFF"/>
  <circle cx="12.3" cy="15.49" r="0.9" fill="#FFFFFF"/>
</svg>
